<svg width="16" height="16" viewBox="0 0 16 16" fill="none" xmlns="http://www.w3.org/2000/svg">
<g id="ancient-gate-fill">
<path id="Vector" d="M12.6025 6.66667C12.8659 7.12371 13.2992 7.45815 13.8081 7.59713C14.3169 7.73612 14.8601 7.66837 15.3192 7.40867C15.3732 7.8911 15.2754 8.37836 15.0394 8.80257C14.8034 9.22679 14.4409 9.56683 14.0025 9.77533L14.0019 14H10.0019V12.6667C10.0024 12.1461 9.79985 11.6458 9.43734 11.2721C9.07484 10.8985 8.58093 10.6809 8.06055 10.6656C7.54017 10.6503 7.03434 10.8386 6.65055 11.1903C6.26675 11.5421 6.03523 12.0296 6.00519 12.5493L6.00186 12.6667V14H2.00186V9.776C1.56263 9.56779 1.19938 9.22761 0.96285 8.80296C0.726321 8.3783 0.628318 7.89038 0.682526 7.40733C1.14162 7.66757 1.68498 7.73575 2.19413 7.597C2.70328 7.45826 3.13693 7.12384 3.40053 6.66667H12.6025ZM11.3592 2C11.4069 2.33073 11.525 2.64737 11.7057 2.92848C11.8863 3.20959 12.1253 3.44862 12.4063 3.6294C12.6873 3.81018 13.0039 3.92849 13.3346 3.97632C13.6653 4.02416 14.0025 4.0004 14.3232 3.90667C14.2661 4.45905 14.0139 4.97297 13.6119 5.35606C13.2098 5.73914 12.6844 5.96629 12.1299 5.99667L12.0019 6H4.00186C3.42451 6.00009 2.86762 5.78613 2.43886 5.39948C2.0101 5.01284 1.73991 4.48096 1.68053 3.90667C2.00126 4.0004 2.33839 4.02416 2.6691 3.97632C2.99981 3.92849 3.31639 3.81018 3.59742 3.6294C3.87845 3.44862 4.11737 3.20959 4.29802 2.92848C4.47868 2.64737 4.59684 2.33073 4.64453 2H11.3592Z" fill="#F8B02B"/>
</g>
</svg>
