<svg xmlns="http://www.w3.org/2000/svg" width="20" height="20" viewBox="0 0 20 20" fill="none">
  <path d="M2.5 9.16683L4.4805 4.54566C4.79566 3.81029 5.51874 3.3335 6.31879 3.3335H13.6812C14.4813 3.3335 15.2043 3.81029 15.5195 4.54566L17.5 9.16683M2.5 9.16683H17.5M2.5 9.16683V15.0002M17.5 9.16683V15.0002M15 15.0002V15.4168C15 16.1072 15.5596 16.6668 16.25 16.6668V16.6668C16.9404 16.6668 17.5 16.1072 17.5 15.4168V15.0002M15 15.0002H5M15 15.0002H17.5M5 15.0002V15.4168C5 16.1072 4.44036 16.6668 3.75 16.6668V16.6668C3.05964 16.6668 2.5 16.1072 2.5 15.4168V15.0002M5 15.0002H2.5" stroke="#F8B02B" stroke-width="2" stroke-linecap="round" stroke-linejoin="round"/>
  <path fill-rule="evenodd" clip-rule="evenodd" d="M2.5 9.1665H17.5V14.9998H2.5V9.1665ZM4.83333 11.6665C4.83333 11.1142 5.28105 10.6665 5.83333 10.6665H5.83433C6.38662 10.6665 6.83433 11.1142 6.83433 11.6665C6.83433 12.2188 6.38662 12.6665 5.83433 12.6665H5.83333C5.28105 12.6665 4.83333 12.2188 4.83333 11.6665ZM14.1667 10.6665C13.6144 10.6665 13.1667 11.1142 13.1667 11.6665C13.1667 12.2188 13.6144 12.6665 14.1667 12.6665H14.1677C14.72 12.6665 15.1677 12.2188 15.1677 11.6665C15.1677 11.1142 14.72 10.6665 14.1677 10.6665H14.1667Z" fill="#F8B02B"/>
</svg>