<svg width="57" height="56" viewBox="0 0 57 56" fill="none" xmlns="http://www.w3.org/2000/svg">
<rect x="0.5" width="56" height="56" rx="28" fill="#1877F2"/>
<path d="M40.5734 28.0733C40.5734 21.4054 35.168 16 28.5001 16C21.8322 16 16.4268 21.4054 16.4268 28.0733C16.4268 34.0995 20.8418 39.0943 26.6136 40V31.5633H23.5481V28.0733H26.6136V25.4134C26.6136 22.3875 28.4161 20.7161 31.1739 20.7161C32.4948 20.7161 33.8765 20.952 33.8765 20.952V23.9231H32.3541C30.8543 23.9231 30.3866 24.8538 30.3866 25.8086V28.0733H33.735L33.1997 31.5633H30.3866V40C36.1584 39.0943 40.5734 34.0995 40.5734 28.0733Z" fill="white"/>
</svg>
