<svg width="119" height="32" viewBox="0 0 119 32" fill="none" xmlns="http://www.w3.org/2000/svg">
<g clip-path="url(#clip0_646_66164)">
<path d="M8.90403 21.1341C7.65909 21.1341 6.87423 20.292 6.87423 18.961V9.10017H11.3127V5.59593H6.87423L6.9013 0H3.51831L2.86877 5.59593H0V9.10017H2.78758V19.0696C2.78758 22.4924 4.95269 24.8014 8.14624 24.8014C9.09347 24.8014 10.2843 24.6112 11.1503 24.3124L11.5834 24.1766V20.5637L10.7714 20.8082C10.176 21.0255 9.33705 21.1341 8.90403 21.1341Z" fill="#101010"/>
<path d="M23.139 5.2428C21.5151 5.2428 19.9184 5.94908 18.8358 7.03567V5.56877H14.8574V24.1223H18.9441V14.18C18.9441 11.1104 20.4597 9.04585 22.733 9.04585C23.3014 9.04585 24.2486 9.15451 25.0605 9.50765L25.9266 9.88796V5.94908L25.6018 5.78609C24.9523 5.43295 24.0321 5.2428 23.139 5.2428Z" fill="#101010"/>
<path d="M36.6998 4.88965C31.0434 4.88965 26.9297 8.99152 26.9297 14.6146C26.9297 20.5093 31.0975 24.8014 36.8351 24.8014C40.8947 24.8014 44.2235 22.8998 45.712 19.7216L45.9827 19.1783L42.5456 17.4397L42.2479 17.983C41.2465 19.8574 39.2167 20.9983 36.8892 20.9983C33.9663 20.9983 31.7741 19.2326 31.1787 16.4346H46.2804L46.3345 15.8642C46.3616 15.4567 46.3616 15.0221 46.3616 14.6689C46.3616 9.01868 42.302 4.88965 36.6998 4.88965ZM36.5644 8.71987C39.2438 8.71987 41.3006 10.2411 42.0043 12.6859H31.2599C31.9094 10.2411 33.9392 8.71987 36.5644 8.71987Z" fill="#101010"/>
<path d="M58.565 4.88965C52.9086 4.88965 48.7949 8.99152 48.7949 14.6146C48.7949 20.5093 52.9628 24.8014 58.7003 24.8014C62.7599 24.8014 66.0888 22.8998 67.5773 19.7216L67.8479 19.1783L64.4108 17.4397L64.1131 17.983C63.1117 19.8574 61.0819 20.9983 58.7544 20.9983C55.8315 20.9983 53.6394 19.2326 53.044 16.4346H68.1456L68.1997 15.8642C68.2268 15.4567 68.2268 15.0221 68.2268 14.6689C68.2268 9.01868 64.1672 4.88965 58.565 4.88965ZM58.4297 8.71987C61.109 8.71987 63.1659 10.2411 63.8695 12.6859H53.1251C53.7747 10.2411 55.8045 8.71987 58.4297 8.71987Z" fill="#101010"/>
<path d="M81.6241 4.88965C79.1613 4.88965 77.0774 5.75892 75.6159 7.36163V5.56877H71.5293V32H75.6159V22.3837C77.0774 23.9593 79.1884 24.8285 81.6512 24.8285C87.064 24.8285 91.1506 20.5365 91.1506 14.8591C91.1777 9.18167 87.064 4.88965 81.6241 4.88965ZM87.091 14.8319C87.091 18.3362 84.6282 20.9983 81.3264 20.9983C78.0246 20.9983 75.5348 18.3633 75.5348 14.8319C75.5348 11.3277 78.0246 8.71987 81.3264 8.71987C84.6553 8.71987 87.091 11.3005 87.091 14.8319Z" fill="#101010"/>
<path d="M107.146 20.3192H116.997V24.1223H99.1895L114.075 5.59595H119L107.146 20.3192Z" fill="#FEBF43"/>
<g opacity="0.2">
<g opacity="0.2">
<mask id="mask0_646_66164" style="mask-type:alpha" maskUnits="userSpaceOnUse" x="104" y="20" width="13" height="5">
<g opacity="0.2">
<g opacity="0.2">
<path opacity="0.2" d="M116.997 20.3191H104.277V24.1493H116.997V20.3191Z" fill="url(#paint0_linear_646_66164)"/>
</g>
</g>
</mask>
<g mask="url(#mask0_646_66164)">
<path opacity="0.2" d="M116.997 20.3191H104.277V24.1493H116.997V20.3191Z" fill="url(#paint1_linear_646_66164)"/>
</g>
</g>
</g>
<path d="M104.006 9.399H94.1551V5.59595H111.963L97.078 24.1223H92.1523L104.006 9.399Z" fill="#FEBF43"/>
<g opacity="0.2">
<g opacity="0.2">
<mask id="mask1_646_66164" style="mask-type:alpha" maskUnits="userSpaceOnUse" x="94" y="5" width="13" height="5">
<g opacity="0.2">
<g opacity="0.2">
<path opacity="0.2" d="M106.876 5.59595H94.1562V9.42617H106.876V5.59595Z" fill="url(#paint2_linear_646_66164)"/>
</g>
</g>
</mask>
<g mask="url(#mask1_646_66164)">
<path opacity="0.2" d="M106.876 5.59595H94.1562V9.42617H106.876V5.59595Z" fill="url(#paint3_linear_646_66164)"/>
</g>
</g>
</g>
</g>
<defs>
<linearGradient id="paint0_linear_646_66164" x1="104.253" y1="22.2261" x2="116.964" y2="22.2261" gradientUnits="userSpaceOnUse">
<stop stop-color="white"/>
<stop offset="1"/>
</linearGradient>
<linearGradient id="paint1_linear_646_66164" x1="104.253" y1="22.2261" x2="116.964" y2="22.2261" gradientUnits="userSpaceOnUse">
<stop stop-color="#231F20"/>
<stop offset="1" stop-color="white"/>
</linearGradient>
<linearGradient id="paint2_linear_646_66164" x1="106.906" y1="7.48588" x2="94.1887" y2="7.48588" gradientUnits="userSpaceOnUse">
<stop stop-color="white"/>
<stop offset="1"/>
</linearGradient>
<linearGradient id="paint3_linear_646_66164" x1="106.906" y1="7.48588" x2="94.1887" y2="7.48588" gradientUnits="userSpaceOnUse">
<stop stop-color="#231F20"/>
<stop offset="1" stop-color="white"/>
</linearGradient>
<clipPath id="clip0_646_66164">
<rect width="119" height="32" fill="white"/>
</clipPath>
</defs>
</svg>
