<svg width="16" height="17" viewBox="0 0 16 17" fill="none" xmlns="http://www.w3.org/2000/svg">
<path d="M14.6666 10.108C14.6473 12.384 14.5209 13.6388 13.6935 14.4662C12.7169 15.4428 11.1452 15.4428 8.00165 15.4428C4.85814 15.4428 3.28639 15.4428 2.30982 14.4662C1.33325 13.4896 1.33325 11.9179 1.33325 8.77437C1.33325 5.63085 1.33325 4.05909 2.30982 3.08252C3.13725 2.25509 4.39197 2.12874 6.66798 2.10944" stroke="#4D5154" stroke-width="1.5" stroke-linecap="round"/>
<path d="M14.6667 5.44277H9.33333C8.1216 5.44277 7.39113 6.03745 7.12027 6.30963C7.0364 6.39392 6.99447 6.43608 6.99387 6.43665C6.99333 6.43722 6.95113 6.47916 6.86687 6.56305C6.59468 6.83391 6 7.56437 6 8.7761V10.7761M14.6667 5.44277L11.3333 2.10944M14.6667 5.44277L11.3333 8.7761" stroke="#4D5154" stroke-width="1.5" stroke-linecap="round" stroke-linejoin="round"/>
</svg>
