<svg width="57" height="56" viewBox="0 0 57 56" fill="none" xmlns="http://www.w3.org/2000/svg">
<rect x="0.166504" width="56" height="56" rx="28" fill="#4A154B"/>
<path d="M21.2088 31.1661C21.2088 32.5537 20.0753 33.6873 18.6877 33.6873C17.3001 33.6873 16.1665 32.5537 16.1665 31.1661C16.1665 29.7785 17.3001 28.645 18.6877 28.645H21.2088V31.1661Z" fill="#E01E5A"/>
<path d="M22.479 31.1661C22.479 29.7785 23.6126 28.6449 25.0002 28.6449C26.3878 28.6449 27.5213 29.7785 27.5213 31.1661V37.4788C27.5213 38.8664 26.3878 40 25.0002 40C23.6126 40 22.479 38.8664 22.479 37.4788V31.1661Z" fill="#E01E5A"/>
<path d="M25.0002 21.0423C23.6126 21.0423 22.479 19.9088 22.479 18.5212C22.479 17.1336 23.6126 16 25.0002 16C26.3878 16 27.5213 17.1336 27.5213 18.5212V21.0423H25.0002Z" fill="#36C5F0"/>
<path d="M25.0004 22.3127C26.388 22.3127 27.5216 23.4462 27.5216 24.8339C27.5216 26.2215 26.388 27.355 25.0004 27.355H18.6877C17.3001 27.355 16.1665 26.2215 16.1665 24.8339C16.1665 23.4462 17.3001 22.3127 18.6877 22.3127H25.0004Z" fill="#36C5F0"/>
<path d="M35.124 24.8339C35.124 23.4462 36.2576 22.3127 37.6452 22.3127C39.0328 22.3127 40.1664 23.4462 40.1664 24.8339C40.1664 26.2215 39.0328 27.355 37.6452 27.355H35.124V24.8339Z" fill="#2EB67D"/>
<path d="M33.8539 24.8339C33.8539 26.2215 32.7203 27.355 31.3327 27.355C29.9451 27.355 28.8115 26.2215 28.8115 24.8339V18.5212C28.8115 17.1336 29.9451 16 31.3327 16C32.7203 16 33.8539 17.1336 33.8539 18.5212V24.8339Z" fill="#2EB67D"/>
<path d="M31.3327 34.9576C32.7203 34.9576 33.8539 36.0912 33.8539 37.4788C33.8539 38.8664 32.7203 40 31.3327 40C29.9451 40 28.8115 38.8664 28.8115 37.4788V34.9576H31.3327Z" fill="#ECB22E"/>
<path d="M31.3327 33.6873C29.9451 33.6873 28.8115 32.5537 28.8115 31.1661C28.8115 29.7785 29.9451 28.645 31.3327 28.645H37.6454C39.033 28.645 40.1666 29.7785 40.1666 31.1661C40.1666 32.5537 39.033 33.6873 37.6454 33.6873H31.3327Z" fill="#ECB22E"/>
</svg>
