<svg width="57" height="56" viewBox="0 0 57 56" fill="none" xmlns="http://www.w3.org/2000/svg">
<rect x="0.5" width="56" height="56" rx="28" fill="#25D366"/>
<g clip-path="url(#clip0_827_7014)">
<path fill-rule="evenodd" clip-rule="evenodd" d="M36.9562 19.485C34.7129 17.2388 31.7292 16.0011 28.5502 16C21.9996 16 16.6684 21.3307 16.6661 27.883C16.665 29.9776 17.2126 32.0221 18.2525 33.8239L16.5664 39.9825L22.8663 38.33C24.602 39.2771 26.5564 39.7756 28.5451 39.7762H28.5502C35.0997 39.7762 40.4316 34.445 40.4338 27.8927C40.4349 24.7171 39.2001 21.7318 36.9562 19.4856V19.485ZM28.5502 37.7693H28.5463C26.7741 37.7688 25.0356 37.2924 23.5188 36.3926L23.1581 36.1784L19.4195 37.159L20.4172 33.5139L20.1825 33.1401C19.1938 31.5674 18.6713 29.7497 18.6725 27.8836C18.6747 22.4378 23.1056 18.0069 28.5543 18.0069C31.1925 18.008 33.6724 19.0366 35.5373 20.9039C37.4024 22.7706 38.4286 25.2527 38.4275 27.8915C38.4252 33.3379 33.9943 37.7688 28.5502 37.7688V37.7693ZM33.9681 30.372C33.6712 30.2232 32.2114 29.5052 31.9389 29.4061C31.6666 29.3069 31.4689 29.2574 31.2711 29.5548C31.0734 29.8523 30.5042 30.5213 30.3309 30.719C30.1577 30.9173 29.9845 30.9418 29.6876 30.793C29.3908 30.6443 28.434 30.3309 27.2995 29.3195C26.4169 28.532 25.8208 27.5599 25.6476 27.2624C25.4744 26.965 25.6294 26.8043 25.7775 26.6567C25.9108 26.5234 26.0744 26.3097 26.2231 26.1365C26.3719 25.9632 26.4209 25.8391 26.52 25.6413C26.6192 25.443 26.5696 25.2698 26.4955 25.1211C26.4214 24.9724 25.8277 23.5107 25.5798 22.9164C25.3387 22.3375 25.0938 22.4162 24.912 22.4065C24.7387 22.3979 24.541 22.3962 24.3427 22.3962C24.1444 22.3962 23.823 22.4703 23.5507 22.7677C23.2783 23.0651 22.5113 23.7837 22.5113 25.2447C22.5113 26.7057 23.5752 28.1183 23.7239 28.3166C23.8726 28.5149 25.8179 31.5139 28.7964 32.8005C29.5047 33.1065 30.058 33.2894 30.4893 33.4262C31.2005 33.6524 31.8478 33.6205 32.3595 33.5441C32.9299 33.4587 34.1162 32.8256 34.3635 32.1321C34.6108 31.4386 34.6108 30.8437 34.5368 30.7201C34.4627 30.5964 34.2644 30.5218 33.9675 30.3731L33.9681 30.372Z" fill="white"/>
</g>
<defs>
<clipPath id="clip0_827_7014">
<rect width="23.8674" height="24" fill="white" transform="translate(16.5664 16)"/>
</clipPath>
</defs>
</svg>
