<svg width="151" height="16" viewBox="0 0 151 16" fill="none" xmlns="http://www.w3.org/2000/svg">
<path d="M14.27 3.80702C14.52 3.38077 14.895 3.03977 15.3403 2.81502C16.0747 2.48177 17.0435 2.65227 17.6763 3.14827C18.2388 3.64427 18.5747 4.37277 18.4106 5.16327C18.5747 5.16327 18.6763 5.06252 18.8481 5.00052C19.7466 4.73702 20.6841 5.00052 21.2778 5.76002C21.7075 6.31802 21.8481 7.14727 21.5435 7.77502C21.4419 8.10827 21.2075 8.37177 20.9419 8.66627L21.0122 8.72827C21.8481 8.79027 22.6763 9.38702 22.9419 10.2163C23.2075 11.0455 23.0122 11.867 22.3794 12.4638C21.8794 12.9598 21.2778 13.1225 20.6138 13.0605H8.0669C7.0044 13.0683 6.23096 12.6343 5.86377 11.743C5.52784 10.9835 5.69971 9.99152 6.29346 9.39477C6.6919 8.99952 7.1919 8.83677 7.72315 8.73602C7.13721 8.17027 6.84034 7.41077 7.0044 6.58927C7.0669 5.99252 7.60596 5.26402 8.27002 5.03927C8.83252 4.80677 9.60596 4.87652 10.1372 5.14002C9.97315 4.24877 10.3716 3.45052 11.1372 2.95452C11.8013 2.52827 12.8403 2.52827 13.5044 3.02427C13.8325 3.21027 14.106 3.54352 14.27 3.80702Z" fill="white"/>
<path d="M17.8013 4.14049C17.6919 3.90799 17.5356 3.70649 17.3325 3.54374C16.8325 3.11749 15.9966 3.04774 15.4028 3.38099C14.8325 3.64449 14.5044 4.27224 14.5044 4.86899H15.2388C15.2856 4.91549 15.3403 4.94649 15.4028 4.96974C15.106 5.20224 14.5356 5.39599 14.6685 5.86099L15.4341 10.7512L17.5981 5.92299C17.9341 5.36499 18.106 4.69849 17.8013 4.14049Z" fill="#645FA9"/>
<path d="M13.1685 10.6893L14.067 5.1015C14.1373 4.70625 13.9967 4.342 13.8326 4.00875C13.6685 3.6445 13.3326 3.412 12.9967 3.24925C12.3951 2.98575 11.5982 3.1485 11.1607 3.5825C10.7232 4.0165 10.4967 4.67525 10.7232 5.334L12.9263 10.2243L13.1685 10.6893Z" fill="#C8234A"/>
<path d="M21.0356 6.31789C21.3013 6.81389 21.27 7.57339 20.9341 8.00739C20.6997 8.34064 20.3638 8.50339 20.0981 8.73589L15.4966 11.8746L15.5669 11.7119L17.9966 6.28689C18.395 5.62814 19.0669 5.29489 19.7622 5.39564C20.27 5.52739 20.77 5.86064 21.0356 6.31789Z" fill="#0088CF"/>
<path d="M8.0356 8.37167L13.1372 11.8437H13.2075L10.6762 6.28692C10.2309 5.55067 9.32466 5.22517 8.51216 5.52742C8.01216 5.75992 7.61372 6.18617 7.51216 6.68217C7.23872 7.30992 7.4731 7.97642 8.0356 8.37167Z" fill="#F26F21"/>
<path d="M22.1372 12.0065C22.5356 11.5725 22.5669 10.782 22.3716 10.317C22.1997 9.91397 21.8794 9.59622 21.4731 9.42572C20.9731 9.19322 20.3091 9.26297 19.8716 9.52647L15.3403 12.6342H20.77C21.3013 12.6342 21.7388 12.4405 22.1372 12.0065Z" fill="#0DB04B"/>
<path d="M13.2699 12.6341L8.73869 9.45665C8.30119 9.19315 7.63713 9.1234 7.13713 9.3559C6.73088 9.5264 6.41057 9.84415 6.23869 10.2471C5.97307 10.8051 6.07463 11.5026 6.47307 11.9366C6.80901 12.3629 7.32463 12.6109 7.87151 12.5954L13.2699 12.6341Z" fill="#FCB813"/>
<path d="M33.5982 6.65114C33.3638 5.65914 32.5982 5.39564 31.6685 5.32589C28.7388 5.06239 28.2388 7.24014 28.2388 8.17014C28.2388 9.75889 28.6685 11.0144 31.5747 11.0144C32.1372 11.0144 33.5747 10.4486 33.5747 9.59614H37.7388C37.5747 12.2389 33.1372 12.8356 31.2076 12.8356C27.2076 12.8356 23.7779 12.1071 23.9419 8.17014C24.0357 5.36464 26.6997 3.41164 32.0044 3.54339C34.9341 3.60539 37.7701 4.53539 37.7701 6.62014H33.5982V6.65114Z" fill="black"/>
<path d="M75.1294 6.65141C74.8951 5.65941 74.1294 5.3959 73.1919 5.32615C70.2622 5.06265 69.7622 7.2404 69.7622 8.1394C69.7622 9.72815 70.1919 10.9837 73.0982 10.9837C73.6685 10.9837 75.0982 10.4257 75.0982 9.5654H79.2622C79.0982 12.2082 74.6607 12.8049 72.731 12.8049C68.731 12.8049 65.3013 12.0764 65.4654 8.1394C65.5669 5.32615 68.231 3.3809 73.5279 3.51265C76.4576 3.57465 79.3247 4.50465 79.3247 6.5894H75.1294V6.65141Z" fill="black"/>
<path d="M38.5356 3.74512H43.9028L48.5044 10.1234H48.5747V3.74512H52.0122V12.5724H46.8794L42.0747 6.19412H42.0122V12.5724H38.5435V3.74512H38.5356Z" fill="black"/>
<path d="M53.0356 3.74512H59.5669C62.731 3.74512 64.5356 4.63637 64.5356 5.93062C64.5356 6.69012 63.77 7.68212 62.0356 7.94562C64.0669 8.04637 64.8716 9.36387 64.8716 10.1311C64.8716 11.7199 63.106 12.5414 59.5747 12.5414H53.0435V3.74512H53.0356ZM56.8638 7.21712H57.9653C59.6294 7.21712 60.4966 7.11637 60.4966 6.38787C60.4966 5.65937 59.7622 5.39587 58.2935 5.39587H56.895V7.21712H56.8638ZM56.8638 10.7821H57.9653C59.9653 10.7821 60.731 10.5496 60.731 9.89087C60.731 9.16237 59.7935 8.89887 58.3013 8.89887H56.9028V10.7511H56.8716V10.7821H56.8638Z" fill="black"/>
<path d="M114.004 12.4481C113.168 12.4481 112.348 12.4558 111.536 12.4326C111.426 12.4326 111.262 12.2621 111.231 12.1458C111.122 11.7428 111.043 11.3321 110.997 10.9136C110.864 9.59608 110.372 9.11558 109.036 9.09233C108.059 9.07683 107.083 9.08458 106.067 9.08458V12.4016H103.333V3.85333C103.473 3.84558 103.598 3.83008 103.723 3.83008C105.833 3.83008 107.942 3.83008 110.059 3.83008C111.012 3.83008 111.934 3.98508 112.739 4.53533C114.208 5.54283 114.059 7.34858 112.45 8.12358C112.27 8.20883 112.083 8.27858 111.856 8.37933C111.926 8.41808 112.004 8.44908 112.075 8.48008C112.965 8.75908 113.45 9.37133 113.559 10.2781C113.614 10.7353 113.645 11.2003 113.723 11.6576C113.762 11.9056 113.887 12.1381 114.004 12.4481ZM106.075 5.36458V7.73608C107.004 7.73608 107.911 7.74383 108.809 7.73608C109.192 7.74383 109.567 7.71283 109.942 7.64308C110.684 7.49583 110.997 7.11608 110.973 6.46508C110.958 5.86833 110.583 5.41883 109.872 5.38783C108.622 5.32583 107.364 5.36458 106.075 5.36458Z" fill="black" stroke="white" stroke-miterlimit="10"/>
<path d="M91.731 12.4485C90.8169 12.4485 89.9497 12.4562 89.0903 12.4407C88.9888 12.4407 88.8481 12.3012 88.7935 12.1927C88.5513 11.7432 88.356 11.2782 88.0981 10.8442C88.02 10.7047 87.8013 10.5575 87.645 10.5575C86.2935 10.5342 84.9497 10.5342 83.5981 10.5575C83.4106 10.5807 83.2466 10.6815 83.1372 10.8287C82.8638 11.2705 82.6528 11.751 82.4028 12.2082C82.3403 12.3167 82.1997 12.4407 82.0981 12.4485C81.2622 12.464 80.4341 12.4562 79.5356 12.4562C79.606 12.2935 79.645 12.1772 79.7075 12.0687C81.1685 9.43374 82.6216 6.79099 84.0825 4.15599C84.2153 3.92349 84.356 3.82274 84.6294 3.83049C85.3481 3.84599 86.0669 3.82274 86.7856 3.84599C86.9653 3.86149 87.1216 3.95449 87.2231 4.09399C88.7153 6.81424 90.1997 9.53449 91.6763 12.2625C91.6919 12.3245 91.7153 12.3865 91.731 12.4485ZM87.2231 9.09274L85.6372 5.93074C85.0669 7.03899 84.5513 8.04649 84.0122 9.09274H87.2231Z" fill="black" stroke="white" stroke-miterlimit="10"/>
<path d="M145.145 12.4483C144.184 12.4483 143.333 12.4561 142.489 12.4406C142.372 12.4406 142.223 12.2933 142.161 12.1771C141.918 11.7353 141.715 11.2626 141.458 10.8286C141.379 10.6968 141.184 10.5573 141.043 10.5573C139.676 10.5341 138.317 10.5341 136.95 10.5573C136.793 10.5573 136.583 10.7046 136.497 10.8441C136.239 11.2781 136.036 11.7431 135.786 12.1926C135.723 12.3011 135.59 12.4406 135.489 12.4483C134.645 12.4716 133.793 12.4561 132.864 12.4561C133.317 11.6268 133.739 10.8518 134.161 10.0846C135.239 8.13157 136.325 6.17857 137.395 4.21782C137.551 3.92332 137.731 3.79932 138.075 3.82257C138.715 3.85357 139.364 3.84582 140.012 3.82257C140.34 3.80707 140.512 3.91557 140.661 4.19457C141.942 6.56607 143.223 8.93757 144.52 11.3013C144.715 11.6578 144.903 12.0066 145.145 12.4483ZM140.598 9.10807C140.059 8.03082 139.551 7.01557 139.012 5.93057C138.45 7.03107 137.918 8.04632 137.379 9.10807H140.598Z" fill="black" stroke="white" stroke-miterlimit="10"/>
<path d="M132.309 9.13909C132.153 10.2086 131.629 10.9836 130.817 11.5648C128.598 13.1536 124.254 12.9986 122.153 11.2703C119.973 9.47234 120.161 6.29484 122.543 4.75259C124.059 3.76834 125.754 3.55134 127.52 3.66759C128.692 3.74509 129.809 4.01634 130.801 4.67509C131.528 5.16334 132.036 5.80659 132.223 6.73659C131.372 6.73659 130.551 6.73659 129.739 6.72884C129.645 6.72109 129.559 6.66684 129.504 6.58159C129.145 5.81434 128.465 5.50434 127.708 5.33384C126.887 5.14009 126.028 5.18659 125.239 5.47334C123.973 5.94609 123.325 6.98459 123.403 8.37184C123.465 9.61184 124.254 10.5728 125.512 10.8983C126.293 11.1153 127.122 11.1231 127.903 10.9216C128.723 10.7123 129.301 10.2241 129.583 9.41809C129.622 9.30184 129.778 9.14684 129.879 9.13909C130.661 9.12359 131.45 9.13909 132.309 9.13909Z" fill="black" stroke="white" stroke-miterlimit="10"/>
<path d="M92.8872 3.85352H101.645V5.41902H95.645V7.40302H100.84V8.87552H95.6294V12.4173H92.8872V3.85352Z" fill="black" stroke="white" stroke-miterlimit="10"/>
<path d="M116.012 3.85352H118.7V12.425H116.012V3.85352Z" fill="black" stroke="white" stroke-miterlimit="10"/>
</svg>
