<!-- <svg xmlns="http://www.w3.org/2000/svg" version="1.1" width="390" height="200" viewBox="0 0 390 200" style="shape-rendering:geometricPrecision; text-rendering:geometricPrecision; image-rendering:optimizeQuality; fill-rule:evenodd; clip-rule:evenodd" xmlns:xlink="http://www.w3.org/1999/xlink"> -->
<svg xmlns="http://www.w3.org/2000/svg" version="1.1" width="70" height="45" viewBox="0 50 390 200" style="shape-rendering:geometricPrecision; text-rendering:geometricPrecision; image-rendering:optimizeQuality; fill-rule:evenodd; clip-rule:evenodd" xmlns:xlink="http://www.w3.org/1999/xlink">
 
<g><path style="opacity:0.952" fill="#ab2723" d="M 174.5,85.5 C 181.167,85.5 187.833,85.5 194.5,85.5C 194.5,114.5 194.5,143.5 194.5,172.5C 200.868,172.17 207.202,172.504 213.5,173.5C 214.088,177.878 216.422,180.712 220.5,182C 223.833,182.667 227.167,182.667 230.5,182C 236.302,177.728 236.635,173.061 231.5,168C 221.617,165.155 212.284,161.155 203.5,156C 191.605,141.285 193.272,128.285 208.5,117C 222.573,110.842 235.406,112.675 247,122.5C 249.102,125.705 250.935,129.038 252.5,132.5C 245.858,133.664 239.192,133.831 232.5,133C 228.517,130.564 224.184,129.898 219.5,131C 214.376,134 213.709,137.667 217.5,142C 226.396,144.725 235.063,148.058 243.5,152C 246.99,154.491 250.157,157.325 253,160.5C 254.429,131.571 269.596,115.904 298.5,113.5C 326.597,115.597 341.597,130.597 343.5,158.5C 319.824,158.167 296.157,158.5 272.5,159.5C 279.489,179.776 292.822,185.609 312.5,177C 316.553,174.613 319.553,171.28 321.5,167C 328.492,166.5 335.492,166.334 342.5,166.5C 334.363,192.257 316.696,203.424 289.5,200C 274.425,196.882 263.592,188.382 257,174.5C 253.881,191.992 243.381,200.992 225.5,201.5C 210.566,201.292 200.399,194.292 195,180.5C 194.501,186.157 194.334,191.824 194.5,197.5C 187.833,197.5 181.167,197.5 174.5,197.5C 174.666,188.827 174.5,180.16 174,171.5C 167.666,188.515 155.333,197.182 137,197.5C 116.357,196.856 103.691,186.523 99,166.5C 93.6245,184.543 81.7912,195.71 63.5,200C 51.2712,202.198 39.9379,200.032 29.5,193.5C 28.501,205.482 28.1677,217.482 28.5,229.5C 22.1667,229.5 15.8333,229.5 9.5,229.5C 9.33336,202.498 9.50003,175.498 10,148.5C 14.3911,131.109 25.2245,119.942 42.5,115C 64.312,110.487 81.4787,117.32 94,135.5C 95.893,138.618 97.2264,141.951 98,145.5C 98.4998,135.839 98.6665,126.172 98.5,116.5C 105.167,116.5 111.833,116.5 118.5,116.5C 118.059,133.223 118.559,149.89 120,166.5C 126.955,178.127 136.455,180.627 148.5,174C 150.969,171.559 152.802,168.726 154,165.5C 154.5,149.17 154.667,132.837 154.5,116.5C 161.167,116.5 167.833,116.5 174.5,116.5C 174.5,106.167 174.5,95.8333 174.5,85.5 Z M 291.5,132.5 C 301.937,131.036 310.937,133.869 318.5,141C 305.167,141.667 291.833,141.667 278.5,141C 282.249,137.135 286.582,134.302 291.5,132.5 Z M 56.5,170.5 C 55.6297,174.577 54.4631,178.577 53,182.5C 49.9207,168.436 46.5873,154.436 43,140.5C 42.6174,141.056 42.1174,141.389 41.5,141.5C 41.523,139.073 42.023,136.74 43,134.5C 46.3132,148.239 49.8132,161.906 53.5,175.5C 54.3249,173.64 55.3249,171.974 56.5,170.5 Z M 40.5,144.5 C 40.1167,148.319 39.1167,151.986 37.5,155.5C 34.5541,156.655 31.5541,156.821 28.5,156C 31.2263,155.818 33.8929,155.318 36.5,154.5C 37.6645,150.987 38.9978,147.654 40.5,144.5 Z M 60.5,159.5 C 60.5,158.5 60.5,157.5 60.5,156.5C 62.5273,156.338 64.5273,156.505 66.5,157C 64.1548,157.236 62.1548,158.07 60.5,159.5 Z M 59.5,162.5 C 59.5979,164.553 58.9313,166.22 57.5,167.5C 57.4021,165.447 58.0687,163.78 59.5,162.5 Z"/></g>
<g><path style="opacity:0.761" fill="#ab2723" d="M 293.5,211.5 C 295.167,211.5 296.833,211.5 298.5,211.5C 298.351,212.552 298.517,213.552 299,214.5C 304.609,210.284 309.942,210.617 315,215.5C 316.391,222.746 316.891,230.079 316.5,237.5C 314.833,237.5 313.167,237.5 311.5,237.5C 311.666,231.158 311.5,224.825 311,218.5C 306.044,214.695 302.044,215.695 299,221.5C 298.501,226.823 298.334,232.156 298.5,237.5C 296.833,237.5 295.167,237.5 293.5,237.5C 293.5,228.833 293.5,220.167 293.5,211.5 Z"/></g>
<g><path style="opacity:0.815" fill="#ab2723" d="M 325.5,211.5 C 329.712,211.078 333.712,211.744 337.5,213.5C 339.173,211.914 341.173,211.247 343.5,211.5C 343.666,220.839 343.5,230.173 343,239.5C 340.122,244.022 335.955,246.022 330.5,245.5C 325.383,246.108 321.383,244.275 318.5,240C 319.665,238.916 320.998,238.083 322.5,237.5C 326.538,241.673 331.205,242.507 336.5,240C 338.325,238.534 338.825,236.701 338,234.5C 330.042,238.678 323.375,237.011 318,229.5C 315.856,221.465 318.356,215.465 325.5,211.5 Z M 326.5,216.5 C 333.373,214.928 337.707,217.428 339.5,224C 337.441,231.467 332.775,233.801 325.5,231C 320.475,225.854 320.808,221.02 326.5,216.5 Z"/></g>
<g><path style="opacity:0.708" fill="#ab2723" d="M 283.5,230.5 C 289.016,230.473 290.349,232.64 287.5,237C 281.738,237.418 280.404,235.251 283.5,230.5 Z"/></g>
</svg>
